<svg version="1.1" id="Layer_1" xmlns="http://www.w3.org/2000/svg" xmlns:xlink="http://www.w3.org/1999/xlink" x="0px" y="0px" width="100%" viewBox="0 0 128 128" enable-background="new 0 0 128 128" xml:space="preserve">

<path fill="#28333F" opacity="1.000000" stroke="none" d="
M52.950638,111.169014 
	C28.028339,104.750305 11.329959,77.719742 18.959803,51.869236 
	C25.962856,28.142340 52.045902,11.507363 77.811836,18.880060 
	C101.650505,25.701290 118.343315,52.023640 111.208885,77.495354 
	C104.466270,101.568146 77.831284,118.530312 52.950638,111.169014 
M93.509216,37.008602 
	C82.823189,27.786839 70.925705,22.650576 56.500690,26.028135 
	C35.102642,31.038412 21.270597,52.452438 26.002333,73.195435 
	C30.335375,92.190628 46.962910,105.495033 66.112816,104.865669 
	C79.595016,104.422562 90.493324,98.309532 98.060875,86.790024 
	C104.301033,77.291115 107.190842,66.899460 103.701920,55.992516 
	C101.616096,49.471870 97.317772,43.658966 93.509216,37.008602 
z" data-index="1" style="opacity: 1;"></path>
<path fill="#E064CA" opacity="1.000000" stroke="none" d="
M93.761597,37.268265 
	C97.317772,43.658966 101.616096,49.471870 103.701920,55.992516 
	C107.190842,66.899460 104.301033,77.291115 98.060875,86.790024 
	C90.493324,98.309532 79.595016,104.422562 66.112816,104.865669 
	C46.962910,105.495033 30.335375,92.190628 26.002333,73.195435 
	C21.270597,52.452438 35.102642,31.038412 56.500690,26.028135 
	C70.925705,22.650576 82.823189,27.786839 93.761597,37.268265 
M77.000000,74.391815 
	C77.097229,72.074188 77.113373,69.749748 77.307327,67.440247 
	C77.830147,61.214680 78.677048,55.001255 78.822144,48.769669 
	C78.858261,47.218323 76.724586,45.616459 75.588234,44.037815 
	C74.058479,45.223900 72.188728,46.165901 71.106537,47.673302 
	C70.241005,48.878922 70.315872,50.768742 70.003555,52.360809 
	C68.968826,57.635380 68.141998,62.962502 66.807632,68.159630 
	C66.386375,69.800339 64.620811,71.095901 63.470482,72.549423 
	C62.645401,72.289886 61.820316,72.030350 60.995235,71.770805 
	C60.995235,65.045258 61.218021,58.306866 60.831615,51.603588 
	C60.740101,50.016045 58.603565,48.546383 57.407730,47.022495 
	C55.944748,48.275227 53.552685,49.301994 53.183308,50.820705 
	C51.758480,56.678947 51.465557,62.834591 49.799564,68.604752 
	C48.570995,72.859894 46.967781,77.492271 41.577690,80.126572 
	C40.961594,77.616455 40.829937,75.421387 39.871723,73.681549 
	C39.050636,72.190697 37.270767,70.271721 35.937786,70.289162 
	C34.617252,70.306442 32.417599,72.356140 32.178738,73.778862 
	C31.171717,79.776939 33.595436,84.807785 38.219624,88.538933 
	C40.274899,90.197289 42.762131,90.957985 45.264652,88.348503 
	C48.382568,85.097321 51.912956,82.241714 55.518539,78.986610 
	C59.213482,84.473602 63.767410,84.205200 68.882919,79.444595 
	C68.811722,84.336945 69.055916,88.421616 74.130310,88.917397 
	C78.206978,89.315697 82.378548,89.511581 85.731285,86.100952 
	C88.910606,82.866737 92.349007,79.885956 95.695610,76.817879 
	C97.863647,74.830292 99.373703,72.748283 96.607674,70.149666 
	C93.774681,67.488144 91.956299,69.674065 89.917923,71.520889 
	C86.116051,74.965477 82.170769,78.251778 78.285172,81.603958 
	C77.856781,81.280792 77.428398,80.957626 77.000008,80.634460 
	C77.000008,78.858490 77.000008,77.082512 77.000000,74.391815 
z" data-index="2" style="opacity: 1;"></path>
<path fill="#28333F" opacity="1.000000" stroke="none" d="
M77.000000,74.849182 
	C77.000008,77.082512 77.000008,78.858490 77.000008,80.634460 
	C77.428398,80.957626 77.856781,81.280792 78.285172,81.603958 
	C82.170769,78.251778 86.116051,74.965477 89.917923,71.520889 
	C91.956299,69.674065 93.774681,67.488144 96.607674,70.149666 
	C99.373703,72.748283 97.863647,74.830292 95.695610,76.817879 
	C92.349007,79.885956 88.910606,82.866737 85.731285,86.100952 
	C82.378548,89.511581 78.206978,89.315697 74.130310,88.917397 
	C69.055916,88.421616 68.811722,84.336945 68.882919,79.444595 
	C63.767410,84.205200 59.213482,84.473602 55.518539,78.986610 
	C51.912956,82.241714 48.382568,85.097321 45.264652,88.348503 
	C42.762131,90.957985 40.274899,90.197289 38.219624,88.538933 
	C33.595436,84.807785 31.171717,79.776939 32.178738,73.778862 
	C32.417599,72.356140 34.617252,70.306442 35.937786,70.289162 
	C37.270767,70.271721 39.050636,72.190697 39.871723,73.681549 
	C40.829937,75.421387 40.961594,77.616455 41.577690,80.126572 
	C46.967781,77.492271 48.570995,72.859894 49.799564,68.604752 
	C51.465557,62.834591 51.758480,56.678947 53.183308,50.820705 
	C53.552685,49.301994 55.944748,48.275227 57.407730,47.022495 
	C58.603565,48.546383 60.740101,50.016045 60.831615,51.603588 
	C61.218021,58.306866 60.995235,65.045258 60.995235,71.770805 
	C61.820316,72.030350 62.645401,72.289886 63.470482,72.549423 
	C64.620811,71.095901 66.386375,69.800339 66.807632,68.159630 
	C68.141998,62.962502 68.968826,57.635380 70.003555,52.360809 
	C70.315872,50.768742 70.241005,48.878922 71.106537,47.673302 
	C72.188728,46.165901 74.058479,45.223900 75.588234,44.037811 
	C76.724586,45.616459 78.858261,47.218323 78.822144,48.769669 
	C78.677048,55.001255 77.830147,61.214680 77.307327,67.440247 
	C77.113373,69.749748 77.097229,72.074188 77.000000,74.849182 
z" data-index="3" style="opacity: 1;"></path>
</svg>