<svg version="1.1" id="Layer_1" xmlns="http://www.w3.org/2000/svg" xmlns:xlink="http://www.w3.org/1999/xlink" x="0px" y="0px" width="100%" viewBox="0 0 128 128" enable-background="new 0 0 128 128" xml:space="preserve">

<path fill="#28333F" opacity="1.000000" stroke="none" d="
M49.833054,110.348007 
	C28.090302,102.485023 17.219816,83.633553 17.053642,64.923058 
	C16.854950,42.551563 33.886593,22.215691 55.867409,18.067980 
	C85.912025,12.398656 113.562737,35.809212 112.992920,66.433449 
	C112.593895,87.877716 95.604286,107.649040 74.289841,111.989876 
	C66.017220,113.674660 58.114349,112.791718 49.833054,110.348007 
M52.072521,102.563156 
	C59.008949,105.047119 65.977165,105.788750 73.299232,104.040947 
	C94.951782,98.872452 108.859703,77.497955 103.974731,56.540573 
	C98.939690,34.939362 77.236130,21.033981 56.367832,26.039032 
	C35.007565,31.162075 21.054508,52.671642 26.071119,73.293015 
	C29.450333,87.183678 37.559509,97.255783 52.072521,102.563156 
z" data-index="1"></path>
<path fill="#E064CA" opacity="1.000000" stroke="none" d="
M51.740028,102.337135 
	C37.559509,97.255783 29.450333,87.183678 26.071119,73.293015 
	C21.054508,52.671642 35.007565,31.162075 56.367832,26.039032 
	C77.236130,21.033981 98.939690,34.939362 103.974731,56.540573 
	C108.859703,77.497955 94.951782,98.872452 73.299232,104.040947 
	C65.977165,105.788750 59.008949,105.047119 51.740028,102.337135 
M74.590279,75.129311 
	C76.283844,78.650574 76.235207,80.788116 72.013458,83.245804 
	C65.181648,87.222900 53.021805,83.879494 49.316147,75.714622 
	C48.113930,73.065720 46.386208,70.809875 43.278629,72.477158 
	C40.232399,74.111526 39.995907,77.273865 42.028465,79.707115 
	C45.116596,83.404030 48.621452,86.798203 52.232628,90.001572 
	C56.941639,94.178810 71.896538,94.867943 78.173904,89.154518 
	C80.824959,86.741623 84.000374,84.788170 84.182373,80.048393 
	C84.491356,72.001762 75.804237,60.185684 66.078720,57.950047 
	C60.508995,56.669712 54.831936,55.136059 54.001621,47.985077 
	C62.056061,41.952221 66.493568,40.480717 76.833946,48.306980 
	C78.139038,49.294758 79.339424,50.690922 80.812584,51.110546 
	C82.281044,51.528839 84.585060,51.535667 85.504662,50.657185 
	C86.444252,49.759609 86.918526,47.115997 86.272499,46.010376 
	C79.033562,33.621510 57.943813,31.091890 48.237370,41.415470 
	C47.010883,42.719940 46.240860,44.866619 46.082458,46.694424 
	C45.142406,57.542057 51.225674,62.308849 62.015202,65.796158 
	C67.213608,67.476341 71.769981,69.264229 74.590279,75.129311 
z" data-index="2"></path>
<path fill="#28333F" opacity="1.000000" stroke="none" d="
M74.323364,74.855255 
	C71.769981,69.264229 67.213608,67.476341 62.015202,65.796158 
	C51.225674,62.308849 45.142406,57.542057 46.082458,46.694424 
	C46.240860,44.866619 47.010883,42.719940 48.237370,41.415470 
	C57.943813,31.091890 79.033562,33.621510 86.272499,46.010376 
	C86.918526,47.115997 86.444252,49.759609 85.504662,50.657185 
	C84.585060,51.535667 82.281044,51.528839 80.812584,51.110546 
	C79.339424,50.690922 78.139038,49.294758 76.833946,48.306980 
	C66.493568,40.480717 62.056061,41.952221 54.001621,47.985077 
	C54.831936,55.136059 60.508995,56.669712 66.078720,57.950047 
	C75.804237,60.185684 84.491356,72.001762 84.182373,80.048393 
	C84.000374,84.788170 80.824959,86.741623 78.173904,89.154518 
	C71.896538,94.867943 56.941639,94.178810 52.232628,90.001572 
	C48.621452,86.798203 45.116596,83.404030 42.028465,79.707115 
	C39.995907,77.273865 40.232399,74.111526 43.278629,72.477158 
	C46.386208,70.809875 48.113930,73.065720 49.316147,75.714622 
	C53.021805,83.879494 65.181648,87.222900 72.013458,83.245804 
	C76.235207,80.788116 76.283844,78.650574 74.323364,74.855255 
z" data-index="3"></path>
</svg>